<!-- icon666.com - MILLIONS vector ICONS FREE --><svg id="Layer_1" enable-background="new 0 0 512 512" viewBox="0 0 512 512" xmlns="http://www.w3.org/2000/svg"><path d="m460.059 51.942c-69.254-69.254-181.939-69.254-251.193 0-33.548 33.548-52.024 78.152-52.024 125.596 0 36.825 11.175 71.911 31.844 101.472l-24.264 24.262c-8.186 8.188-10.222 7.355-13.601 5.99-7.334-2.971-15.036-4.507-28.574 9.033l-116.629 116.626c-3.622 3.623-5.618 8.445-5.618 13.584 0 5.14 1.996 9.963 5.618 13.583l44.293 44.293c3.622 3.622 8.445 5.618 13.583 5.618 5.136 0 9.959-1.996 13.581-5.618l116.629-116.627c13.54-13.54 12-21.244 9.033-28.577-1.367-3.381-2.192-5.42 5.99-13.604l24.263-24.261c29.561 20.669 64.648 31.845 101.473 31.845 47.444 0 92.048-18.476 125.596-52.024 69.255-69.25 69.255-181.937 0-251.191zm-261.118 285.847c-13.54 13.54-12 21.244-9.033 28.579 1.367 3.379 2.192 5.42-5.99 13.601l-116.628 116.627c-2.097 2.09-5.501 2.09-7.594 0l-44.293-44.296c-1.009-1.007-1.563-2.354-1.563-3.796 0-1.439.554-2.786 1.563-3.796l116.629-116.628c8.188-8.186 10.222-7.353 13.601-5.99 7.33 2.969 15.032 4.503 28.574-9.033l22.891-22.89c3.689 4.482 7.61 8.81 11.768 12.967 4.156 4.157 8.486 8.078 12.965 11.765zm251.333-44.44c-30.935 30.935-72.063 47.972-115.811 47.972s-84.878-17.036-115.811-47.972c-30.935-30.933-47.972-72.063-47.972-115.811s17.036-84.876 47.972-115.811c31.928-31.928 73.87-47.893 115.811-47.893 41.939 0 83.88 15.964 115.811 47.893 63.857 63.859 63.857 167.765 0 231.622zm-20.6-211.022c-25.432-25.432-59.246-39.439-95.211-39.439-35.967 0-69.781 14.007-95.213 39.439s-39.439 59.246-39.439 95.211c0 35.967 14.007 69.781 39.439 95.213s59.246 39.439 95.213 39.439c35.965 0 69.779-14.007 95.211-39.439 25.434-25.432 39.441-59.246 39.441-95.213 0-35.965-14.007-69.779-39.441-95.211zm-9.785 180.639c-22.819 22.817-53.157 35.384-85.426 35.384-32.271 0-62.609-12.567-85.428-35.384-22.817-22.819-35.384-53.157-35.384-85.428 0-32.269 12.567-62.607 35.384-85.426 23.553-23.551 54.491-35.328 85.426-35.328 30.937 0 61.875 11.777 85.428 35.328 22.819 22.819 35.386 53.157 35.386 85.426 0 32.271-12.568 62.609-35.386 85.428zm-78.506-175.39c0 3.823-3.097 6.92-6.92 6.92-45.791 0-83.045 37.254-83.045 83.045 0 3.823-3.097 6.92-6.92 6.92s-6.92-3.097-6.92-6.92c0-53.423 43.462-96.885 96.885-96.885 3.823 0 6.92 3.097 6.92 6.92z"></path></svg>